<mxfile host="app.diagrams.net" modified="2023-07-03T04:15:31.897Z" agent="Mozilla/5.0 (Windows NT 10.0; Win64; x64) AppleWebKit/537.36 (KHTML, like Gecko) Chrome/114.0.0.0 Safari/537.36" etag="6U_TpazZYD18JdQssNn5" version="21.5.2" type="device">
  <diagram name="페이지-1" id="vsK-mEs-69w2OT6HwTmM">
    <mxGraphModel dx="842" dy="444" grid="0" gridSize="10" guides="1" tooltips="1" connect="1" arrows="1" fold="1" page="0" pageScale="1" pageWidth="827" pageHeight="1169" math="0" shadow="0">
      <root>
        <mxCell id="0" />
        <mxCell id="1" parent="0" />
        <mxCell id="g85fiYR9sdugYiEXPNZ6-1" value="" style="strokeWidth=2;html=1;shape=mxgraph.flowchart.delay;whiteSpace=wrap;rotation=90;align=center;" vertex="1" parent="1">
          <mxGeometry x="200" y="310" width="100" height="60" as="geometry" />
        </mxCell>
        <mxCell id="g85fiYR9sdugYiEXPNZ6-2" value="" style="endArrow=none;html=1;rounded=0;exitX=0;exitY=0.717;exitDx=0;exitDy=0;exitPerimeter=0;align=center;" edge="1" parent="1" source="g85fiYR9sdugYiEXPNZ6-1">
          <mxGeometry width="50" height="50" relative="1" as="geometry">
            <mxPoint x="390" y="360" as="sourcePoint" />
            <mxPoint x="237" y="220" as="targetPoint" />
          </mxGeometry>
        </mxCell>
        <mxCell id="g85fiYR9sdugYiEXPNZ6-3" value="" style="endArrow=none;html=1;rounded=0;exitX=0;exitY=0.717;exitDx=0;exitDy=0;exitPerimeter=0;align=center;" edge="1" parent="1">
          <mxGeometry width="50" height="50" relative="1" as="geometry">
            <mxPoint x="263" y="290" as="sourcePoint" />
            <mxPoint x="263" y="220" as="targetPoint" />
          </mxGeometry>
        </mxCell>
        <mxCell id="g85fiYR9sdugYiEXPNZ6-4" value="Relu_en" style="text;html=1;strokeColor=none;fillColor=none;align=center;verticalAlign=middle;whiteSpace=wrap;rounded=0;" vertex="1" parent="1">
          <mxGeometry x="190" y="190" width="60" height="30" as="geometry" />
        </mxCell>
        <mxCell id="g85fiYR9sdugYiEXPNZ6-5" value="input[7]" style="text;html=1;strokeColor=none;fillColor=none;align=center;verticalAlign=middle;whiteSpace=wrap;rounded=0;" vertex="1" parent="1">
          <mxGeometry x="240" y="190" width="60" height="30" as="geometry" />
        </mxCell>
        <mxCell id="g85fiYR9sdugYiEXPNZ6-7" value="" style="endArrow=none;html=1;rounded=0;entryX=1;entryY=0.5;entryDx=0;entryDy=0;entryPerimeter=0;movable=1;resizable=1;rotatable=1;deletable=1;editable=1;locked=0;connectable=1;align=center;" edge="1" parent="1" target="g85fiYR9sdugYiEXPNZ6-1">
          <mxGeometry width="50" height="50" relative="1" as="geometry">
            <mxPoint x="250" y="456" as="sourcePoint" />
            <mxPoint x="250" y="396" as="targetPoint" />
          </mxGeometry>
        </mxCell>
        <mxCell id="g85fiYR9sdugYiEXPNZ6-8" value="" style="verticalLabelPosition=bottom;verticalAlign=top;html=1;shape=mxgraph.basic.acute_triangle;dx=0.5;rotation=90;align=center;" vertex="1" parent="1">
          <mxGeometry x="280" y="420" width="60" height="70" as="geometry" />
        </mxCell>
        <mxCell id="g85fiYR9sdugYiEXPNZ6-11" value="" style="endArrow=none;html=1;rounded=0;exitX=0.5;exitY=1;exitDx=0;exitDy=0;exitPerimeter=0;align=center;" edge="1" parent="1" source="g85fiYR9sdugYiEXPNZ6-8">
          <mxGeometry width="50" height="50" relative="1" as="geometry">
            <mxPoint x="390" y="460" as="sourcePoint" />
            <mxPoint x="250" y="455" as="targetPoint" />
          </mxGeometry>
        </mxCell>
        <mxCell id="g85fiYR9sdugYiEXPNZ6-12" value="" style="ellipse;whiteSpace=wrap;html=1;aspect=fixed;align=center;" vertex="1" parent="1">
          <mxGeometry x="340" y="450" width="10" height="10" as="geometry" />
        </mxCell>
        <mxCell id="g85fiYR9sdugYiEXPNZ6-13" value="" style="endArrow=none;html=1;rounded=0;exitX=1;exitY=0.5;exitDx=0;exitDy=0;entryX=0;entryY=0.5;entryDx=0;entryDy=0;align=center;" edge="1" parent="1" source="g85fiYR9sdugYiEXPNZ6-12" target="g85fiYR9sdugYiEXPNZ6-60">
          <mxGeometry width="50" height="50" relative="1" as="geometry">
            <mxPoint x="390" y="460" as="sourcePoint" />
            <mxPoint x="810" y="455" as="targetPoint" />
          </mxGeometry>
        </mxCell>
        <mxCell id="g85fiYR9sdugYiEXPNZ6-14" value="" style="strokeWidth=2;html=1;shape=mxgraph.flowchart.delay;whiteSpace=wrap;rotation=90;align=center;" vertex="1" parent="1">
          <mxGeometry x="350" y="540" width="100" height="60" as="geometry" />
        </mxCell>
        <mxCell id="g85fiYR9sdugYiEXPNZ6-15" value="" style="endArrow=none;html=1;rounded=0;exitX=0;exitY=0.717;exitDx=0;exitDy=0;exitPerimeter=0;align=center;" edge="1" parent="1" source="g85fiYR9sdugYiEXPNZ6-14">
          <mxGeometry width="50" height="50" relative="1" as="geometry">
            <mxPoint x="540" y="590" as="sourcePoint" />
            <mxPoint x="387" y="450" as="targetPoint" />
          </mxGeometry>
        </mxCell>
        <mxCell id="g85fiYR9sdugYiEXPNZ6-16" value="" style="endArrow=none;html=1;rounded=0;exitX=0;exitY=0.717;exitDx=0;exitDy=0;exitPerimeter=0;align=center;" edge="1" parent="1">
          <mxGeometry width="50" height="50" relative="1" as="geometry">
            <mxPoint x="413" y="520" as="sourcePoint" />
            <mxPoint x="413" y="260" as="targetPoint" />
          </mxGeometry>
        </mxCell>
        <mxCell id="g85fiYR9sdugYiEXPNZ6-17" value="" style="ellipse;whiteSpace=wrap;html=1;aspect=fixed;fillColor=#000000;align=center;" vertex="1" parent="1">
          <mxGeometry x="382" y="450" width="10" height="10" as="geometry" />
        </mxCell>
        <mxCell id="g85fiYR9sdugYiEXPNZ6-18" value="" style="endArrow=none;html=1;rounded=0;exitX=1;exitY=0.5;exitDx=0;exitDy=0;exitPerimeter=0;align=center;" edge="1" parent="1" source="g85fiYR9sdugYiEXPNZ6-14">
          <mxGeometry width="50" height="50" relative="1" as="geometry">
            <mxPoint x="570" y="560" as="sourcePoint" />
            <mxPoint x="400" y="720" as="targetPoint" />
          </mxGeometry>
        </mxCell>
        <mxCell id="g85fiYR9sdugYiEXPNZ6-20" value="" style="strokeWidth=2;html=1;shape=mxgraph.flowchart.delay;whiteSpace=wrap;rotation=90;align=center;" vertex="1" parent="1">
          <mxGeometry x="452" y="541" width="100" height="60" as="geometry" />
        </mxCell>
        <mxCell id="g85fiYR9sdugYiEXPNZ6-21" value="" style="endArrow=none;html=1;rounded=0;exitX=0;exitY=0.717;exitDx=0;exitDy=0;exitPerimeter=0;align=center;" edge="1" parent="1" source="g85fiYR9sdugYiEXPNZ6-20">
          <mxGeometry width="50" height="50" relative="1" as="geometry">
            <mxPoint x="642" y="591" as="sourcePoint" />
            <mxPoint x="489" y="451" as="targetPoint" />
          </mxGeometry>
        </mxCell>
        <mxCell id="g85fiYR9sdugYiEXPNZ6-22" value="" style="endArrow=none;html=1;rounded=0;exitX=0;exitY=0.717;exitDx=0;exitDy=0;exitPerimeter=0;align=center;" edge="1" parent="1">
          <mxGeometry width="50" height="50" relative="1" as="geometry">
            <mxPoint x="515" y="521" as="sourcePoint" />
            <mxPoint x="515" y="221" as="targetPoint" />
          </mxGeometry>
        </mxCell>
        <mxCell id="g85fiYR9sdugYiEXPNZ6-23" value="" style="ellipse;whiteSpace=wrap;html=1;aspect=fixed;fillColor=#000000;align=center;" vertex="1" parent="1">
          <mxGeometry x="484" y="451" width="10" height="10" as="geometry" />
        </mxCell>
        <mxCell id="g85fiYR9sdugYiEXPNZ6-24" value="" style="endArrow=none;html=1;rounded=0;exitX=1;exitY=0.5;exitDx=0;exitDy=0;exitPerimeter=0;align=center;" edge="1" parent="1" source="g85fiYR9sdugYiEXPNZ6-20">
          <mxGeometry width="50" height="50" relative="1" as="geometry">
            <mxPoint x="672" y="561" as="sourcePoint" />
            <mxPoint x="502" y="721" as="targetPoint" />
          </mxGeometry>
        </mxCell>
        <mxCell id="g85fiYR9sdugYiEXPNZ6-25" value="input[6]" style="text;html=1;strokeColor=none;fillColor=none;align=center;verticalAlign=middle;whiteSpace=wrap;rounded=0;" vertex="1" parent="1">
          <mxGeometry x="484" y="191" width="60" height="30" as="geometry" />
        </mxCell>
        <mxCell id="g85fiYR9sdugYiEXPNZ6-26" value="" style="endArrow=none;html=1;rounded=0;align=center;" edge="1" parent="1">
          <mxGeometry width="50" height="50" relative="1" as="geometry">
            <mxPoint x="413" y="260" as="sourcePoint" />
            <mxPoint x="263" y="260" as="targetPoint" />
          </mxGeometry>
        </mxCell>
        <mxCell id="g85fiYR9sdugYiEXPNZ6-27" value="" style="strokeWidth=2;html=1;shape=mxgraph.flowchart.delay;whiteSpace=wrap;rotation=90;align=center;" vertex="1" parent="1">
          <mxGeometry x="552" y="540" width="100" height="60" as="geometry" />
        </mxCell>
        <mxCell id="g85fiYR9sdugYiEXPNZ6-28" value="" style="endArrow=none;html=1;rounded=0;exitX=0;exitY=0.717;exitDx=0;exitDy=0;exitPerimeter=0;align=center;" edge="1" parent="1" source="g85fiYR9sdugYiEXPNZ6-27">
          <mxGeometry width="50" height="50" relative="1" as="geometry">
            <mxPoint x="742" y="590" as="sourcePoint" />
            <mxPoint x="589" y="450" as="targetPoint" />
          </mxGeometry>
        </mxCell>
        <mxCell id="g85fiYR9sdugYiEXPNZ6-29" value="" style="endArrow=none;html=1;rounded=0;exitX=0;exitY=0.717;exitDx=0;exitDy=0;exitPerimeter=0;align=center;" edge="1" parent="1">
          <mxGeometry width="50" height="50" relative="1" as="geometry">
            <mxPoint x="615" y="520" as="sourcePoint" />
            <mxPoint x="615" y="220" as="targetPoint" />
          </mxGeometry>
        </mxCell>
        <mxCell id="g85fiYR9sdugYiEXPNZ6-30" value="" style="ellipse;whiteSpace=wrap;html=1;aspect=fixed;fillColor=#000000;align=center;" vertex="1" parent="1">
          <mxGeometry x="584" y="450" width="10" height="10" as="geometry" />
        </mxCell>
        <mxCell id="g85fiYR9sdugYiEXPNZ6-31" value="" style="endArrow=none;html=1;rounded=0;exitX=1;exitY=0.5;exitDx=0;exitDy=0;exitPerimeter=0;align=center;" edge="1" parent="1" source="g85fiYR9sdugYiEXPNZ6-27">
          <mxGeometry width="50" height="50" relative="1" as="geometry">
            <mxPoint x="772" y="560" as="sourcePoint" />
            <mxPoint x="602" y="720" as="targetPoint" />
          </mxGeometry>
        </mxCell>
        <mxCell id="g85fiYR9sdugYiEXPNZ6-32" value="input[5]" style="text;html=1;strokeColor=none;fillColor=none;align=center;verticalAlign=middle;whiteSpace=wrap;rounded=0;" vertex="1" parent="1">
          <mxGeometry x="584" y="190" width="60" height="30" as="geometry" />
        </mxCell>
        <mxCell id="g85fiYR9sdugYiEXPNZ6-33" value="" style="strokeWidth=2;html=1;shape=mxgraph.flowchart.delay;whiteSpace=wrap;rotation=90;align=center;" vertex="1" parent="1">
          <mxGeometry x="653" y="541" width="100" height="60" as="geometry" />
        </mxCell>
        <mxCell id="g85fiYR9sdugYiEXPNZ6-34" value="" style="endArrow=none;html=1;rounded=0;exitX=0;exitY=0.717;exitDx=0;exitDy=0;exitPerimeter=0;align=center;" edge="1" parent="1" source="g85fiYR9sdugYiEXPNZ6-33">
          <mxGeometry width="50" height="50" relative="1" as="geometry">
            <mxPoint x="843" y="591" as="sourcePoint" />
            <mxPoint x="690" y="451" as="targetPoint" />
          </mxGeometry>
        </mxCell>
        <mxCell id="g85fiYR9sdugYiEXPNZ6-35" value="" style="endArrow=none;html=1;rounded=0;exitX=0;exitY=0.717;exitDx=0;exitDy=0;exitPerimeter=0;align=center;" edge="1" parent="1">
          <mxGeometry width="50" height="50" relative="1" as="geometry">
            <mxPoint x="716" y="521" as="sourcePoint" />
            <mxPoint x="716" y="221" as="targetPoint" />
          </mxGeometry>
        </mxCell>
        <mxCell id="g85fiYR9sdugYiEXPNZ6-36" value="" style="ellipse;whiteSpace=wrap;html=1;aspect=fixed;fillColor=#000000;align=center;" vertex="1" parent="1">
          <mxGeometry x="685" y="451" width="10" height="10" as="geometry" />
        </mxCell>
        <mxCell id="g85fiYR9sdugYiEXPNZ6-37" value="" style="endArrow=none;html=1;rounded=0;exitX=1;exitY=0.5;exitDx=0;exitDy=0;exitPerimeter=0;align=center;" edge="1" parent="1" source="g85fiYR9sdugYiEXPNZ6-33">
          <mxGeometry width="50" height="50" relative="1" as="geometry">
            <mxPoint x="873" y="561" as="sourcePoint" />
            <mxPoint x="703" y="721" as="targetPoint" />
          </mxGeometry>
        </mxCell>
        <mxCell id="g85fiYR9sdugYiEXPNZ6-38" value="input[4]" style="text;html=1;strokeColor=none;fillColor=none;align=center;verticalAlign=middle;whiteSpace=wrap;rounded=0;" vertex="1" parent="1">
          <mxGeometry x="685" y="191" width="60" height="30" as="geometry" />
        </mxCell>
        <mxCell id="g85fiYR9sdugYiEXPNZ6-39" value="" style="strokeWidth=2;html=1;shape=mxgraph.flowchart.delay;whiteSpace=wrap;rotation=90;align=center;" vertex="1" parent="1">
          <mxGeometry x="753" y="540" width="100" height="60" as="geometry" />
        </mxCell>
        <mxCell id="g85fiYR9sdugYiEXPNZ6-40" value="" style="endArrow=none;html=1;rounded=0;exitX=0;exitY=0.717;exitDx=0;exitDy=0;exitPerimeter=0;align=center;" edge="1" parent="1" source="g85fiYR9sdugYiEXPNZ6-39">
          <mxGeometry width="50" height="50" relative="1" as="geometry">
            <mxPoint x="943" y="590" as="sourcePoint" />
            <mxPoint x="790" y="450" as="targetPoint" />
          </mxGeometry>
        </mxCell>
        <mxCell id="g85fiYR9sdugYiEXPNZ6-41" value="" style="endArrow=none;html=1;rounded=0;exitX=0;exitY=0.717;exitDx=0;exitDy=0;exitPerimeter=0;align=center;" edge="1" parent="1">
          <mxGeometry width="50" height="50" relative="1" as="geometry">
            <mxPoint x="816" y="520" as="sourcePoint" />
            <mxPoint x="816" y="220" as="targetPoint" />
          </mxGeometry>
        </mxCell>
        <mxCell id="g85fiYR9sdugYiEXPNZ6-42" value="" style="ellipse;whiteSpace=wrap;html=1;aspect=fixed;fillColor=#000000;align=center;" vertex="1" parent="1">
          <mxGeometry x="785" y="450" width="10" height="10" as="geometry" />
        </mxCell>
        <mxCell id="g85fiYR9sdugYiEXPNZ6-43" value="" style="endArrow=none;html=1;rounded=0;exitX=1;exitY=0.5;exitDx=0;exitDy=0;exitPerimeter=0;align=center;" edge="1" parent="1" source="g85fiYR9sdugYiEXPNZ6-39">
          <mxGeometry width="50" height="50" relative="1" as="geometry">
            <mxPoint x="973" y="560" as="sourcePoint" />
            <mxPoint x="803" y="720" as="targetPoint" />
          </mxGeometry>
        </mxCell>
        <mxCell id="g85fiYR9sdugYiEXPNZ6-44" value="input[3]" style="text;html=1;strokeColor=none;fillColor=none;align=center;verticalAlign=middle;whiteSpace=wrap;rounded=0;" vertex="1" parent="1">
          <mxGeometry x="785" y="190" width="60" height="30" as="geometry" />
        </mxCell>
        <mxCell id="g85fiYR9sdugYiEXPNZ6-45" value="" style="strokeWidth=2;html=1;shape=mxgraph.flowchart.delay;whiteSpace=wrap;rotation=90;align=center;" vertex="1" parent="1">
          <mxGeometry x="854" y="540" width="100" height="60" as="geometry" />
        </mxCell>
        <mxCell id="g85fiYR9sdugYiEXPNZ6-46" value="" style="endArrow=none;html=1;rounded=0;exitX=0;exitY=0.717;exitDx=0;exitDy=0;exitPerimeter=0;align=center;" edge="1" parent="1" source="g85fiYR9sdugYiEXPNZ6-45">
          <mxGeometry width="50" height="50" relative="1" as="geometry">
            <mxPoint x="1044" y="590" as="sourcePoint" />
            <mxPoint x="891" y="450" as="targetPoint" />
          </mxGeometry>
        </mxCell>
        <mxCell id="g85fiYR9sdugYiEXPNZ6-47" value="" style="endArrow=none;html=1;rounded=0;exitX=0;exitY=0.717;exitDx=0;exitDy=0;exitPerimeter=0;align=center;" edge="1" parent="1">
          <mxGeometry width="50" height="50" relative="1" as="geometry">
            <mxPoint x="917" y="520" as="sourcePoint" />
            <mxPoint x="917" y="220" as="targetPoint" />
          </mxGeometry>
        </mxCell>
        <mxCell id="g85fiYR9sdugYiEXPNZ6-48" value="" style="ellipse;whiteSpace=wrap;html=1;aspect=fixed;fillColor=#000000;align=center;" vertex="1" parent="1">
          <mxGeometry x="886" y="450" width="10" height="10" as="geometry" />
        </mxCell>
        <mxCell id="g85fiYR9sdugYiEXPNZ6-49" value="" style="endArrow=none;html=1;rounded=0;exitX=1;exitY=0.5;exitDx=0;exitDy=0;exitPerimeter=0;align=center;" edge="1" parent="1" source="g85fiYR9sdugYiEXPNZ6-45">
          <mxGeometry width="50" height="50" relative="1" as="geometry">
            <mxPoint x="1074" y="560" as="sourcePoint" />
            <mxPoint x="904" y="720" as="targetPoint" />
          </mxGeometry>
        </mxCell>
        <mxCell id="g85fiYR9sdugYiEXPNZ6-50" value="input[2]" style="text;html=1;strokeColor=none;fillColor=none;align=center;verticalAlign=middle;whiteSpace=wrap;rounded=0;" vertex="1" parent="1">
          <mxGeometry x="886" y="190" width="60" height="30" as="geometry" />
        </mxCell>
        <mxCell id="g85fiYR9sdugYiEXPNZ6-51" value="" style="strokeWidth=2;html=1;shape=mxgraph.flowchart.delay;whiteSpace=wrap;rotation=90;align=center;" vertex="1" parent="1">
          <mxGeometry x="955" y="541" width="100" height="60" as="geometry" />
        </mxCell>
        <mxCell id="g85fiYR9sdugYiEXPNZ6-52" value="" style="endArrow=none;html=1;rounded=0;exitX=0;exitY=0.717;exitDx=0;exitDy=0;exitPerimeter=0;align=center;" edge="1" parent="1" source="g85fiYR9sdugYiEXPNZ6-51">
          <mxGeometry width="50" height="50" relative="1" as="geometry">
            <mxPoint x="1145" y="591" as="sourcePoint" />
            <mxPoint x="992" y="451" as="targetPoint" />
          </mxGeometry>
        </mxCell>
        <mxCell id="g85fiYR9sdugYiEXPNZ6-53" value="" style="endArrow=none;html=1;rounded=0;exitX=0;exitY=0.717;exitDx=0;exitDy=0;exitPerimeter=0;align=center;" edge="1" parent="1">
          <mxGeometry width="50" height="50" relative="1" as="geometry">
            <mxPoint x="1018" y="521" as="sourcePoint" />
            <mxPoint x="1018" y="221" as="targetPoint" />
          </mxGeometry>
        </mxCell>
        <mxCell id="g85fiYR9sdugYiEXPNZ6-54" value="" style="ellipse;whiteSpace=wrap;html=1;aspect=fixed;fillColor=#000000;align=center;" vertex="1" parent="1">
          <mxGeometry x="987" y="451" width="10" height="10" as="geometry" />
        </mxCell>
        <mxCell id="g85fiYR9sdugYiEXPNZ6-55" value="" style="endArrow=none;html=1;rounded=0;exitX=1;exitY=0.5;exitDx=0;exitDy=0;exitPerimeter=0;align=center;" edge="1" parent="1" source="g85fiYR9sdugYiEXPNZ6-51">
          <mxGeometry width="50" height="50" relative="1" as="geometry">
            <mxPoint x="1175" y="561" as="sourcePoint" />
            <mxPoint x="1005" y="721" as="targetPoint" />
          </mxGeometry>
        </mxCell>
        <mxCell id="g85fiYR9sdugYiEXPNZ6-56" value="input[1]" style="text;html=1;strokeColor=none;fillColor=none;align=center;verticalAlign=middle;whiteSpace=wrap;rounded=0;" vertex="1" parent="1">
          <mxGeometry x="987" y="191" width="60" height="30" as="geometry" />
        </mxCell>
        <mxCell id="g85fiYR9sdugYiEXPNZ6-57" value="" style="strokeWidth=2;html=1;shape=mxgraph.flowchart.delay;whiteSpace=wrap;rotation=90;align=center;" vertex="1" parent="1">
          <mxGeometry x="1055" y="540" width="100" height="60" as="geometry" />
        </mxCell>
        <mxCell id="g85fiYR9sdugYiEXPNZ6-58" value="" style="endArrow=none;html=1;rounded=0;exitX=0;exitY=0.717;exitDx=0;exitDy=0;exitPerimeter=0;align=center;" edge="1" parent="1" source="g85fiYR9sdugYiEXPNZ6-57">
          <mxGeometry width="50" height="50" relative="1" as="geometry">
            <mxPoint x="1245" y="590" as="sourcePoint" />
            <mxPoint x="1092" y="450" as="targetPoint" />
          </mxGeometry>
        </mxCell>
        <mxCell id="g85fiYR9sdugYiEXPNZ6-59" value="" style="endArrow=none;html=1;rounded=0;exitX=0;exitY=0.717;exitDx=0;exitDy=0;exitPerimeter=0;align=center;" edge="1" parent="1">
          <mxGeometry width="50" height="50" relative="1" as="geometry">
            <mxPoint x="1118" y="520" as="sourcePoint" />
            <mxPoint x="1118" y="220" as="targetPoint" />
          </mxGeometry>
        </mxCell>
        <mxCell id="g85fiYR9sdugYiEXPNZ6-60" value="" style="ellipse;whiteSpace=wrap;html=1;aspect=fixed;fillColor=#000000;align=center;" vertex="1" parent="1">
          <mxGeometry x="1087" y="450" width="10" height="10" as="geometry" />
        </mxCell>
        <mxCell id="g85fiYR9sdugYiEXPNZ6-61" value="" style="endArrow=none;html=1;rounded=0;exitX=1;exitY=0.5;exitDx=0;exitDy=0;exitPerimeter=0;align=center;" edge="1" parent="1" source="g85fiYR9sdugYiEXPNZ6-57">
          <mxGeometry width="50" height="50" relative="1" as="geometry">
            <mxPoint x="1275" y="560" as="sourcePoint" />
            <mxPoint x="1105" y="720" as="targetPoint" />
          </mxGeometry>
        </mxCell>
        <mxCell id="g85fiYR9sdugYiEXPNZ6-62" value="input[0]" style="text;html=1;strokeColor=none;fillColor=none;align=center;verticalAlign=middle;whiteSpace=wrap;rounded=0;" vertex="1" parent="1">
          <mxGeometry x="1087" y="190" width="60" height="30" as="geometry" />
        </mxCell>
        <mxCell id="g85fiYR9sdugYiEXPNZ6-63" value="output[6]" style="text;html=1;strokeColor=none;fillColor=none;align=center;verticalAlign=middle;whiteSpace=wrap;rounded=0;" vertex="1" parent="1">
          <mxGeometry x="471.5" y="721" width="60" height="30" as="geometry" />
        </mxCell>
        <mxCell id="g85fiYR9sdugYiEXPNZ6-64" value="output[5]" style="text;html=1;strokeColor=none;fillColor=none;align=center;verticalAlign=middle;whiteSpace=wrap;rounded=0;" vertex="1" parent="1">
          <mxGeometry x="571.5" y="720" width="60" height="30" as="geometry" />
        </mxCell>
        <mxCell id="g85fiYR9sdugYiEXPNZ6-65" value="output[4]" style="text;html=1;strokeColor=none;fillColor=none;align=center;verticalAlign=middle;whiteSpace=wrap;rounded=0;" vertex="1" parent="1">
          <mxGeometry x="672.5" y="721" width="60" height="30" as="geometry" />
        </mxCell>
        <mxCell id="g85fiYR9sdugYiEXPNZ6-66" value="output[3]" style="text;html=1;strokeColor=none;fillColor=none;align=center;verticalAlign=middle;whiteSpace=wrap;rounded=0;" vertex="1" parent="1">
          <mxGeometry x="772.5" y="720" width="60" height="30" as="geometry" />
        </mxCell>
        <mxCell id="g85fiYR9sdugYiEXPNZ6-67" value="output[2]" style="text;html=1;strokeColor=none;fillColor=none;align=center;verticalAlign=middle;whiteSpace=wrap;rounded=0;" vertex="1" parent="1">
          <mxGeometry x="873.5" y="720" width="60" height="30" as="geometry" />
        </mxCell>
        <mxCell id="g85fiYR9sdugYiEXPNZ6-68" value="output[1]" style="text;html=1;strokeColor=none;fillColor=none;align=center;verticalAlign=middle;whiteSpace=wrap;rounded=0;" vertex="1" parent="1">
          <mxGeometry x="974.5" y="721" width="60" height="30" as="geometry" />
        </mxCell>
        <mxCell id="g85fiYR9sdugYiEXPNZ6-69" value="output[0]" style="text;html=1;strokeColor=none;fillColor=none;align=center;verticalAlign=middle;whiteSpace=wrap;rounded=0;" vertex="1" parent="1">
          <mxGeometry x="1074.5" y="720" width="60" height="30" as="geometry" />
        </mxCell>
        <mxCell id="g85fiYR9sdugYiEXPNZ6-70" value="output[7]" style="text;html=1;strokeColor=none;fillColor=none;align=center;verticalAlign=middle;whiteSpace=wrap;rounded=0;" vertex="1" parent="1">
          <mxGeometry x="369.5" y="721" width="60" height="30" as="geometry" />
        </mxCell>
        <mxCell id="g85fiYR9sdugYiEXPNZ6-71" value="truth table" style="shape=table;startSize=30;container=1;collapsible=0;childLayout=tableLayout;fixedRows=1;rowLines=0;fontStyle=0;strokeColor=default;fontSize=16;align=center;" vertex="1" parent="1">
          <mxGeometry x="1157" y="338" width="332" height="300" as="geometry" />
        </mxCell>
        <mxCell id="g85fiYR9sdugYiEXPNZ6-72" value="" style="shape=tableRow;horizontal=0;startSize=0;swimlaneHead=0;swimlaneBody=0;top=0;left=0;bottom=0;right=0;collapsible=0;dropTarget=0;fillColor=none;points=[[0,0.5],[1,0.5]];portConstraint=eastwest;strokeColor=inherit;fontSize=16;align=center;" vertex="1" parent="g85fiYR9sdugYiEXPNZ6-71">
          <mxGeometry y="30" width="332" height="30" as="geometry" />
        </mxCell>
        <mxCell id="g85fiYR9sdugYiEXPNZ6-73" value="Relu_en&lt;span style=&quot;white-space: pre;&quot;&gt;&#x9;&lt;/span&gt;input[7]&lt;span style=&quot;white-space: pre;&quot;&gt;&#x9;&lt;/span&gt;input[n]&amp;nbsp;" style="shape=partialRectangle;html=1;whiteSpace=wrap;connectable=0;fillColor=none;top=0;left=0;bottom=0;right=0;overflow=hidden;pointerEvents=1;strokeColor=default;fontSize=16;align=center;" vertex="1" parent="g85fiYR9sdugYiEXPNZ6-72">
          <mxGeometry width="232" height="30" as="geometry">
            <mxRectangle width="232" height="30" as="alternateBounds" />
          </mxGeometry>
        </mxCell>
        <mxCell id="g85fiYR9sdugYiEXPNZ6-74" value="output[n]" style="shape=partialRectangle;html=1;whiteSpace=wrap;connectable=0;fillColor=none;top=0;left=0;bottom=0;right=0;align=center;spacingLeft=6;overflow=hidden;strokeColor=inherit;fontSize=16;" vertex="1" parent="g85fiYR9sdugYiEXPNZ6-72">
          <mxGeometry x="232" width="100" height="30" as="geometry">
            <mxRectangle width="100" height="30" as="alternateBounds" />
          </mxGeometry>
        </mxCell>
        <mxCell id="g85fiYR9sdugYiEXPNZ6-75" value="" style="shape=tableRow;horizontal=0;startSize=0;swimlaneHead=0;swimlaneBody=0;top=0;left=0;bottom=0;right=0;collapsible=0;dropTarget=0;fillColor=none;points=[[0,0.5],[1,0.5]];portConstraint=eastwest;strokeColor=inherit;fontSize=16;align=center;" vertex="1" parent="g85fiYR9sdugYiEXPNZ6-71">
          <mxGeometry y="60" width="332" height="30" as="geometry" />
        </mxCell>
        <mxCell id="g85fiYR9sdugYiEXPNZ6-76" value="0&lt;span style=&quot;white-space: pre;&quot;&gt;&#x9;&lt;/span&gt;0&lt;span style=&quot;white-space: pre;&quot;&gt;&#x9;&lt;/span&gt;0" style="shape=partialRectangle;html=1;whiteSpace=wrap;connectable=0;fillColor=none;top=0;left=0;bottom=0;right=0;overflow=hidden;strokeColor=inherit;fontSize=16;align=center;" vertex="1" parent="g85fiYR9sdugYiEXPNZ6-75">
          <mxGeometry width="232" height="30" as="geometry">
            <mxRectangle width="232" height="30" as="alternateBounds" />
          </mxGeometry>
        </mxCell>
        <mxCell id="g85fiYR9sdugYiEXPNZ6-77" value="0" style="shape=partialRectangle;html=1;whiteSpace=wrap;connectable=0;fillColor=none;top=0;left=0;bottom=0;right=0;align=center;spacingLeft=6;overflow=hidden;strokeColor=inherit;fontSize=16;" vertex="1" parent="g85fiYR9sdugYiEXPNZ6-75">
          <mxGeometry x="232" width="100" height="30" as="geometry">
            <mxRectangle width="100" height="30" as="alternateBounds" />
          </mxGeometry>
        </mxCell>
        <mxCell id="g85fiYR9sdugYiEXPNZ6-78" value="" style="shape=tableRow;horizontal=0;startSize=0;swimlaneHead=0;swimlaneBody=0;top=0;left=0;bottom=0;right=0;collapsible=0;dropTarget=0;fillColor=none;points=[[0,0.5],[1,0.5]];portConstraint=eastwest;strokeColor=inherit;fontSize=16;align=center;" vertex="1" parent="g85fiYR9sdugYiEXPNZ6-71">
          <mxGeometry y="90" width="332" height="30" as="geometry" />
        </mxCell>
        <mxCell id="g85fiYR9sdugYiEXPNZ6-79" value="0&lt;span style=&quot;white-space: pre;&quot;&gt;&#x9;&lt;/span&gt;0&lt;span style=&quot;white-space: pre;&quot;&gt;&#x9;&lt;/span&gt;1" style="shape=partialRectangle;html=1;whiteSpace=wrap;connectable=0;fillColor=none;top=0;left=0;bottom=0;right=0;overflow=hidden;strokeColor=inherit;fontSize=16;align=center;" vertex="1" parent="g85fiYR9sdugYiEXPNZ6-78">
          <mxGeometry width="232" height="30" as="geometry">
            <mxRectangle width="232" height="30" as="alternateBounds" />
          </mxGeometry>
        </mxCell>
        <mxCell id="g85fiYR9sdugYiEXPNZ6-80" value="1" style="shape=partialRectangle;html=1;whiteSpace=wrap;connectable=0;fillColor=none;top=0;left=0;bottom=0;right=0;align=center;spacingLeft=6;overflow=hidden;strokeColor=inherit;fontSize=16;" vertex="1" parent="g85fiYR9sdugYiEXPNZ6-78">
          <mxGeometry x="232" width="100" height="30" as="geometry">
            <mxRectangle width="100" height="30" as="alternateBounds" />
          </mxGeometry>
        </mxCell>
        <mxCell id="g85fiYR9sdugYiEXPNZ6-81" style="shape=tableRow;horizontal=0;startSize=0;swimlaneHead=0;swimlaneBody=0;top=0;left=0;bottom=0;right=0;collapsible=0;dropTarget=0;fillColor=none;points=[[0,0.5],[1,0.5]];portConstraint=eastwest;strokeColor=inherit;fontSize=16;align=center;" vertex="1" parent="g85fiYR9sdugYiEXPNZ6-71">
          <mxGeometry y="120" width="332" height="30" as="geometry" />
        </mxCell>
        <mxCell id="g85fiYR9sdugYiEXPNZ6-82" value="0&lt;span style=&quot;white-space: pre;&quot;&gt;&#x9;&lt;/span&gt;1&lt;span style=&quot;white-space: pre;&quot;&gt;&#x9;&lt;/span&gt;0" style="shape=partialRectangle;html=1;whiteSpace=wrap;connectable=0;fillColor=none;top=0;left=0;bottom=0;right=0;overflow=hidden;strokeColor=inherit;fontSize=16;align=center;" vertex="1" parent="g85fiYR9sdugYiEXPNZ6-81">
          <mxGeometry width="232" height="30" as="geometry">
            <mxRectangle width="232" height="30" as="alternateBounds" />
          </mxGeometry>
        </mxCell>
        <mxCell id="g85fiYR9sdugYiEXPNZ6-83" value="0" style="shape=partialRectangle;html=1;whiteSpace=wrap;connectable=0;fillColor=none;top=0;left=0;bottom=0;right=0;align=center;spacingLeft=6;overflow=hidden;strokeColor=inherit;fontSize=16;" vertex="1" parent="g85fiYR9sdugYiEXPNZ6-81">
          <mxGeometry x="232" width="100" height="30" as="geometry">
            <mxRectangle width="100" height="30" as="alternateBounds" />
          </mxGeometry>
        </mxCell>
        <mxCell id="g85fiYR9sdugYiEXPNZ6-84" style="shape=tableRow;horizontal=0;startSize=0;swimlaneHead=0;swimlaneBody=0;top=0;left=0;bottom=0;right=0;collapsible=0;dropTarget=0;fillColor=none;points=[[0,0.5],[1,0.5]];portConstraint=eastwest;strokeColor=inherit;fontSize=16;align=center;" vertex="1" parent="g85fiYR9sdugYiEXPNZ6-71">
          <mxGeometry y="150" width="332" height="30" as="geometry" />
        </mxCell>
        <mxCell id="g85fiYR9sdugYiEXPNZ6-85" value="0&lt;span style=&quot;white-space: pre;&quot;&gt;&#x9;&lt;/span&gt;1&lt;span style=&quot;white-space: pre;&quot;&gt;&#x9;&lt;/span&gt;1" style="shape=partialRectangle;html=1;whiteSpace=wrap;connectable=0;fillColor=none;top=0;left=0;bottom=0;right=0;overflow=hidden;strokeColor=inherit;fontSize=16;align=center;" vertex="1" parent="g85fiYR9sdugYiEXPNZ6-84">
          <mxGeometry width="232" height="30" as="geometry">
            <mxRectangle width="232" height="30" as="alternateBounds" />
          </mxGeometry>
        </mxCell>
        <mxCell id="g85fiYR9sdugYiEXPNZ6-86" value="1" style="shape=partialRectangle;html=1;whiteSpace=wrap;connectable=0;fillColor=none;top=0;left=0;bottom=0;right=0;align=center;spacingLeft=6;overflow=hidden;strokeColor=inherit;fontSize=16;" vertex="1" parent="g85fiYR9sdugYiEXPNZ6-84">
          <mxGeometry x="232" width="100" height="30" as="geometry">
            <mxRectangle width="100" height="30" as="alternateBounds" />
          </mxGeometry>
        </mxCell>
        <mxCell id="g85fiYR9sdugYiEXPNZ6-87" style="shape=tableRow;horizontal=0;startSize=0;swimlaneHead=0;swimlaneBody=0;top=0;left=0;bottom=0;right=0;collapsible=0;dropTarget=0;fillColor=none;points=[[0,0.5],[1,0.5]];portConstraint=eastwest;strokeColor=inherit;fontSize=16;align=center;" vertex="1" parent="g85fiYR9sdugYiEXPNZ6-71">
          <mxGeometry y="180" width="332" height="30" as="geometry" />
        </mxCell>
        <mxCell id="g85fiYR9sdugYiEXPNZ6-88" value="1&lt;span style=&quot;white-space: pre;&quot;&gt;&#x9;&lt;/span&gt;0&lt;span style=&quot;white-space: pre;&quot;&gt;&#x9;&lt;/span&gt;0" style="shape=partialRectangle;html=1;whiteSpace=wrap;connectable=0;fillColor=none;top=0;left=0;bottom=0;right=0;overflow=hidden;strokeColor=inherit;fontSize=16;align=center;" vertex="1" parent="g85fiYR9sdugYiEXPNZ6-87">
          <mxGeometry width="232" height="30" as="geometry">
            <mxRectangle width="232" height="30" as="alternateBounds" />
          </mxGeometry>
        </mxCell>
        <mxCell id="g85fiYR9sdugYiEXPNZ6-89" value="0" style="shape=partialRectangle;html=1;whiteSpace=wrap;connectable=0;fillColor=none;top=0;left=0;bottom=0;right=0;align=center;spacingLeft=6;overflow=hidden;strokeColor=inherit;fontSize=16;" vertex="1" parent="g85fiYR9sdugYiEXPNZ6-87">
          <mxGeometry x="232" width="100" height="30" as="geometry">
            <mxRectangle width="100" height="30" as="alternateBounds" />
          </mxGeometry>
        </mxCell>
        <mxCell id="g85fiYR9sdugYiEXPNZ6-90" style="shape=tableRow;horizontal=0;startSize=0;swimlaneHead=0;swimlaneBody=0;top=0;left=0;bottom=0;right=0;collapsible=0;dropTarget=0;fillColor=none;points=[[0,0.5],[1,0.5]];portConstraint=eastwest;strokeColor=inherit;fontSize=16;align=center;" vertex="1" parent="g85fiYR9sdugYiEXPNZ6-71">
          <mxGeometry y="210" width="332" height="30" as="geometry" />
        </mxCell>
        <mxCell id="g85fiYR9sdugYiEXPNZ6-91" value="1&lt;span style=&quot;white-space: pre;&quot;&gt;&#x9;&lt;/span&gt;0&lt;span style=&quot;white-space: pre;&quot;&gt;&#x9;&lt;/span&gt;1" style="shape=partialRectangle;html=1;whiteSpace=wrap;connectable=0;fillColor=none;top=0;left=0;bottom=0;right=0;overflow=hidden;strokeColor=inherit;fontSize=16;align=center;" vertex="1" parent="g85fiYR9sdugYiEXPNZ6-90">
          <mxGeometry width="232" height="30" as="geometry">
            <mxRectangle width="232" height="30" as="alternateBounds" />
          </mxGeometry>
        </mxCell>
        <mxCell id="g85fiYR9sdugYiEXPNZ6-92" value="1" style="shape=partialRectangle;html=1;whiteSpace=wrap;connectable=0;fillColor=none;top=0;left=0;bottom=0;right=0;align=center;spacingLeft=6;overflow=hidden;strokeColor=inherit;fontSize=16;" vertex="1" parent="g85fiYR9sdugYiEXPNZ6-90">
          <mxGeometry x="232" width="100" height="30" as="geometry">
            <mxRectangle width="100" height="30" as="alternateBounds" />
          </mxGeometry>
        </mxCell>
        <mxCell id="g85fiYR9sdugYiEXPNZ6-93" style="shape=tableRow;horizontal=0;startSize=0;swimlaneHead=0;swimlaneBody=0;top=0;left=0;bottom=0;right=0;collapsible=0;dropTarget=0;fillColor=none;points=[[0,0.5],[1,0.5]];portConstraint=eastwest;strokeColor=inherit;fontSize=16;align=center;" vertex="1" parent="g85fiYR9sdugYiEXPNZ6-71">
          <mxGeometry y="240" width="332" height="30" as="geometry" />
        </mxCell>
        <mxCell id="g85fiYR9sdugYiEXPNZ6-94" value="1&lt;span style=&quot;white-space: pre;&quot;&gt;&#x9;&lt;/span&gt;1&lt;span style=&quot;white-space: pre;&quot;&gt;&#x9;&lt;/span&gt;0" style="shape=partialRectangle;html=1;whiteSpace=wrap;connectable=0;fillColor=none;top=0;left=0;bottom=0;right=0;overflow=hidden;strokeColor=inherit;fontSize=16;align=center;" vertex="1" parent="g85fiYR9sdugYiEXPNZ6-93">
          <mxGeometry width="232" height="30" as="geometry">
            <mxRectangle width="232" height="30" as="alternateBounds" />
          </mxGeometry>
        </mxCell>
        <mxCell id="g85fiYR9sdugYiEXPNZ6-95" value="0" style="shape=partialRectangle;html=1;whiteSpace=wrap;connectable=0;fillColor=none;top=0;left=0;bottom=0;right=0;align=center;spacingLeft=6;overflow=hidden;strokeColor=inherit;fontSize=16;" vertex="1" parent="g85fiYR9sdugYiEXPNZ6-93">
          <mxGeometry x="232" width="100" height="30" as="geometry">
            <mxRectangle width="100" height="30" as="alternateBounds" />
          </mxGeometry>
        </mxCell>
        <mxCell id="g85fiYR9sdugYiEXPNZ6-96" style="shape=tableRow;horizontal=0;startSize=0;swimlaneHead=0;swimlaneBody=0;top=0;left=0;bottom=0;right=0;collapsible=0;dropTarget=0;fillColor=none;points=[[0,0.5],[1,0.5]];portConstraint=eastwest;strokeColor=inherit;fontSize=16;align=center;" vertex="1" parent="g85fiYR9sdugYiEXPNZ6-71">
          <mxGeometry y="270" width="332" height="30" as="geometry" />
        </mxCell>
        <mxCell id="g85fiYR9sdugYiEXPNZ6-97" value="1&lt;span style=&quot;white-space: pre;&quot;&gt;&#x9;&lt;/span&gt;1&lt;span style=&quot;white-space: pre;&quot;&gt;&#x9;&lt;/span&gt;1" style="shape=partialRectangle;html=1;whiteSpace=wrap;connectable=0;fillColor=none;top=0;left=0;bottom=0;right=0;overflow=hidden;strokeColor=inherit;fontSize=16;align=center;" vertex="1" parent="g85fiYR9sdugYiEXPNZ6-96">
          <mxGeometry width="232" height="30" as="geometry">
            <mxRectangle width="232" height="30" as="alternateBounds" />
          </mxGeometry>
        </mxCell>
        <mxCell id="g85fiYR9sdugYiEXPNZ6-98" value="0" style="shape=partialRectangle;html=1;whiteSpace=wrap;connectable=0;fillColor=none;top=0;left=0;bottom=0;right=0;align=center;spacingLeft=6;overflow=hidden;strokeColor=inherit;fontSize=16;" vertex="1" parent="g85fiYR9sdugYiEXPNZ6-96">
          <mxGeometry x="232" width="100" height="30" as="geometry">
            <mxRectangle width="100" height="30" as="alternateBounds" />
          </mxGeometry>
        </mxCell>
      </root>
    </mxGraphModel>
  </diagram>
</mxfile>
